HIERARCHY
ROOT Hips
{
	OFFSET	0.0000	0.0000	0.0000
	CHANNELS 6 Xposition Yposition Zposition Xrotation Yrotation Zrotation
	JOINT Spine
	{
		OFFSET	0.0000	9.5923	-5.1908
		CHANNELS 3 Xrotation Yrotation Zrotation
		JOINT Spine1
		{
			OFFSET	0.0000	8.7537	0.4573
			CHANNELS 3 Xrotation Yrotation Zrotation
			JOINT Spine2
			{
				OFFSET	0.0000	10.8317	-2.4110
				CHANNELS 3 Xrotation Yrotation Zrotation
				JOINT Neck
				{
					OFFSET	0.0000	24.4089	-0.5076
					CHANNELS 3 Xrotation Yrotation Zrotation
					JOINT Head
					{
						OFFSET	-0.0001	13.7840	3.7493
						CHANNELS 3 Xrotation Yrotation Zrotation
						End Site
						{
							OFFSET	0.0001	19.2597	0.5750
						}
					}
				}
				JOINT LeftShoulder
				{
					OFFSET	2.4643	23.5558	8.0704
					CHANNELS 3 Xrotation Yrotation Zrotation
					JOINT LeftArm
					{
						OFFSET	14.3966	3.3787	-5.4672
						CHANNELS 3 Xrotation Yrotation Zrotation
						JOINT LeftForeArm
						{
							OFFSET	30.5813	-0.1084	-0.2650
							CHANNELS 3 Xrotation Yrotation Zrotation
							JOINT LeftHand
							{
								OFFSET	25.5113	0.0740	-0.1528
								CHANNELS 3 Xrotation Yrotation Zrotation
								JOINT LeftHandIndex1
								{
									OFFSET	9.8875	0.8647	2.7462
									CHANNELS 3 Xrotation Yrotation Zrotation
									JOINT LeftHandIndex2
									{
										OFFSET	3.6984	-0.9018	0.6517
										CHANNELS 3 Xrotation Yrotation Zrotation
										JOINT LeftHandIndex3
										{
											OFFSET	2.5248	-0.6158	0.4450
											CHANNELS 3 Xrotation Yrotation Zrotation
											End Site
											{
												OFFSET	1.7966	-0.5363	0.2914
											}
										}
									}
								}
								JOINT LeftHandMiddle1
								{
									OFFSET	10.0350	0.9986	0.2391
									CHANNELS 3 Xrotation Yrotation Zrotation
									JOINT LeftHandMiddle2
									{
										OFFSET	4.5729	0.0128	-0.0270
										CHANNELS 3 Xrotation Yrotation Zrotation
										JOINT LeftHandMiddle3
										{
											OFFSET	2.5347	0.0078	-0.0154
											CHANNELS 3 Xrotation Yrotation Zrotation
											End Site
											{
												OFFSET	2.2767	-0.1608	0.0031
											}
										}
									}
								}
								JOINT LeftHandRing1
								{
									OFFSET	9.5103	0.6665	-2.2500
									CHANNELS 3 Xrotation Yrotation Zrotation
									JOINT LeftHandRing2
									{
										OFFSET	4.1494	-0.2101	-0.2598
										CHANNELS 3 Xrotation Yrotation Zrotation
										JOINT LeftHandRing3
										{
											OFFSET	2.3645	-0.1190	-0.1485
											CHANNELS 3 Xrotation Yrotation Zrotation
											End Site
											{
												OFFSET	2.0907	-0.2570	-0.0988
											}
										}
									}
								}
								JOINT LeftHandPinky1
								{
									OFFSET	8.8251	-0.6706	-3.8857
									CHANNELS 3 Xrotation Yrotation Zrotation
									JOINT LeftHandPinky2
									{
										OFFSET	2.5523	-0.5322	-0.7045
										CHANNELS 3 Xrotation Yrotation Zrotation
										JOINT LeftHandPinky3
										{
											OFFSET	1.8716	-0.3898	-0.5170
											CHANNELS 3 Xrotation Yrotation Zrotation
											End Site
											{
												OFFSET	1.6612	-0.4564	-0.3811
											}
										}
									}
								}
								JOINT LeftHandThumb1
								{
									OFFSET	2.0454	-1.5481	1.5506
									CHANNELS 3 Xrotation Yrotation Zrotation
									JOINT LeftHandThumb2
									{
										OFFSET	3.8081	-1.2506	2.8711
										CHANNELS 3 Xrotation Yrotation Zrotation
										JOINT LeftHandThumb3
										{
											OFFSET	2.5076	-0.8973	1.8066
											CHANNELS 3 Xrotation Yrotation Zrotation
											End Site
											{
												OFFSET	1.8440	-0.6348	1.2627
											}
										}
									}
								}
							}
						}
					}
				}
				JOINT RightShoulder
				{
					OFFSET	-2.4643	23.5558	8.0703
					CHANNELS 3 Xrotation Yrotation Zrotation
					JOINT RightArm
					{
						OFFSET	-14.3992	3.3793	-5.4681
						CHANNELS 3 Xrotation Yrotation Zrotation
						JOINT RightForeArm
						{
							OFFSET	-30.5813	-0.1084	-0.2650
							CHANNELS 3 Xrotation Yrotation Zrotation
							JOINT RightHand
							{
								OFFSET	-25.5113	0.0740	-0.1528
								CHANNELS 3 Xrotation Yrotation Zrotation
								JOINT RightHandIndex1
								{
									OFFSET	-9.8875	0.8648	2.7462
									CHANNELS 3 Xrotation Yrotation Zrotation
									JOINT RightHandIndex2
									{
										OFFSET	-3.6984	-0.9018	0.6517
										CHANNELS 3 Xrotation Yrotation Zrotation
										JOINT RightHandIndex3
										{
											OFFSET	-2.5248	-0.6160	0.4450
											CHANNELS 3 Xrotation Yrotation Zrotation
											End Site
											{
												OFFSET	-1.7966	-0.5363	0.2914
											}
										}
									}
								}
								JOINT RightHandMiddle1
								{
									OFFSET	-10.0350	0.9986	0.2391
									CHANNELS 3 Xrotation Yrotation Zrotation
									JOINT RightHandMiddle2
									{
										OFFSET	-4.5729	0.0128	-0.0270
										CHANNELS 3 Xrotation Yrotation Zrotation
										JOINT RightHandMiddle3
										{
											OFFSET	-2.5347	0.0078	-0.0155
											CHANNELS 3 Xrotation Yrotation Zrotation
											End Site
											{
												OFFSET	-2.2767	-0.1608	0.0031
											}
										}
									}
								}
								JOINT RightHandRing1
								{
									OFFSET	-9.5103	0.6665	-2.2500
									CHANNELS 3 Xrotation Yrotation Zrotation
									JOINT RightHandRing2
									{
										OFFSET	-4.1494	-0.2101	-0.2598
										CHANNELS 3 Xrotation Yrotation Zrotation
										JOINT RightHandRing3
										{
											OFFSET	-2.3646	-0.1190	-0.1485
											CHANNELS 3 Xrotation Yrotation Zrotation
											End Site
											{
												OFFSET	-2.0907	-0.2571	-0.0988
											}
										}
									}
								}
								JOINT RightHandPinky1
								{
									OFFSET	-8.8252	-0.6706	-3.8857
									CHANNELS 3 Xrotation Yrotation Zrotation
									JOINT RightHandPinky2
									{
										OFFSET	-2.5523	-0.5322	-0.7045
										CHANNELS 3 Xrotation Yrotation Zrotation
										JOINT RightHandPinky3
										{
											OFFSET	-1.8716	-0.3897	-0.5170
											CHANNELS 3 Xrotation Yrotation Zrotation
											End Site
											{
												OFFSET	-1.6612	-0.4564	-0.3811
											}
										}
									}
								}
								JOINT RightHandThumb1
								{
									OFFSET	-2.0454	-1.5480	1.5505
									CHANNELS 3 Xrotation Yrotation Zrotation
									JOINT RightHandThumb2
									{
										OFFSET	-3.8081	-1.2508	2.8712
										CHANNELS 3 Xrotation Yrotation Zrotation
										JOINT RightHandThumb3
										{
											OFFSET	-2.5075	-0.8972	1.8066
											CHANNELS 3 Xrotation Yrotation Zrotation
											End Site
											{
												OFFSET	-1.8440	-0.6348	1.2627
											}
										}
									}
								}
							}
						}
					}
				}
			}
		}
	}
	JOINT RightUpLeg
	{
		OFFSET	-10.2614	4.3360	-0.8458
		CHANNELS 3 Xrotation Yrotation Zrotation
		JOINT RightLeg
		{
			OFFSET	-0.8211	-44.6324	0.0000
			CHANNELS 3 Xrotation Yrotation Zrotation
			JOINT RightFoot
			{
				OFFSET	0.0000	-43.8263	0.0000
				CHANNELS 3 Xrotation Yrotation Zrotation
				JOINT RightToeBase
				{
					OFFSET	0.0000	-4.8169	10.0728
					CHANNELS 3 Xrotation Yrotation Zrotation
					End Site
					{
						OFFSET	0.0000	0.0000	6.7574
					}
				}
			}
		}
	}
	JOINT LeftUpLeg
	{
		OFFSET	10.2613	4.3363	-0.8458
		CHANNELS 3 Xrotation Yrotation Zrotation
		JOINT LeftLeg
		{
			OFFSET	0.8212	-44.6327	0.0000
			CHANNELS 3 Xrotation Yrotation Zrotation
			JOINT LeftFoot
			{
				OFFSET	0.0000	-43.8263	0.0000
				CHANNELS 3 Xrotation Yrotation Zrotation
				JOINT LeftToeBase
				{
					OFFSET	0.0000	-4.8169	10.0728
					CHANNELS 3 Xrotation Yrotation Zrotation
					End Site
					{
						OFFSET	0.0000	0.0000	6.7574
					}
				}
			}
		}
	}
}
MOTION
Frames:	8
Frame Time: 0.0333333000
	0.0000	91.4421	3.0005	0.000000	0.000000	0.000000	0.000000	0.000000	0.000000	0.000000	0.000000	0.000000	0.000000	0.000000	0.000000	0.000000	0.000000	0.000000	0.000000	0.000000	0.000000	0.000000	0.000000	0.000000	0.000000	0.000000	0.000000	0.000000	0.000000	0.000000	0.000000	0.000000	0.000000	0.000000	0.000000	0.000000	0.000000	0.000000	0.000000	0.000000	0.000000	0.000000	0.000000	0.000000	0.000000	0.000000	0.000000	0.000000	0.000000	0.000000	0.000000	0.000000	0.000000	0.000000	0.000000	0.000000	0.000000	0.000000	0.000000	0.000000	0.000000	0.000000	0.000000	0.000000	0.000000	0.000000	0.000000	0.000000	0.000000	0.000000	0.000000	0.000000	0.000000	0.000000	0.000000	0.000000	0.000000	0.000000	0.000000	0.000000	0.000000	0.000000	0.000000	0.000000	0.000000	0.000000	0.000000	0.000000	0.000000	0.000000	0.000000	0.000000	0.000000	0.000000	0.000000	0.000000	0.000000	0.000000	0.000000	0.000000	0.000000	0.000000	0.000000	0.000000	0.000000	0.000000	0.000000	0.000000	0.000000	0.000000	0.000000	0.000000	0.000000	0.000000	0.000000	0.000000	0.000000	0.000000	0.000000	0.000000	0.000000	0.000000	0.000000	0.000000	0.000000	0.000000	0.000000	0.000000	0.000000	0.000000	0.000000	0.000000	0.000000	0.000000	0.000000	0.000000	0.000000	0.000000	0.000000	0.000000	0.000000	0.000000	0.000000	0.000000	0.000000	0.000000	0.000000	0.000000	0.000000	0.000000	0.000000	0.000000	0.000000	0.000000	0.000000	0.000000	0.000000	0.000000	0.000000
	76.1052	93.0760	17.6293	-5.917703	9.935587	-1.326067	4.895979	1.174925	1.547060	2.381660	0.675161	0.568081	7.923333	2.232965	1.763456	-1.052785	-0.034311	0.121649	-0.299432	-0.039007	1.201370	-7.089664	0.395441	-22.108650	12.712110	-20.763510	-53.283540	0.143834	-42.516310	0.040718	-0.000002	0.000001	-0.000004	0.000000	0.000000	0.000000	0.000002	-0.000002	0.000000	0.000000	0.000000	0.000000	0.000000	0.000000	0.000000	0.000002	-0.000002	0.000000	0.000000	0.000000	0.000000	0.000000	0.000000	0.000000	0.000002	-0.000002	0.000000	0.000000	0.000000	0.000000	0.000000	0.000000	0.000000	0.000002	-0.000002	0.000000	0.000000	0.000000	0.000000	0.000000	0.000000	0.000000	0.000002	-0.000002	0.000000	0.000000	0.000000	0.000000	-2.231065	-5.865080	0.361683	7.060900	49.274520	68.065160	0.097974	30.516690	-0.013927	0.000000	0.000000	0.000000	0.000000	0.000000	0.000000	0.000000	0.000000	0.000000	0.000000	0.000000	0.000000	0.000000	0.000000	0.000000	0.000000	0.000000	0.000000	0.000000	0.000000	0.000000	0.000000	0.000000	0.000000	0.000000	0.000000	0.000000	0.000000	0.000000	0.000000	0.000000	0.000000	0.000000	0.000000	0.000000	0.000000	0.000000	0.000000	0.000000	0.000000	0.000000	0.000000	0.000000	0.000000	0.000000	0.000000	0.000000	0.000000	-1.615376	-3.471257	1.048848	8.975077	0.000001	0.000000	2.071995	1.647829	0.746279	0.000000	0.000001	0.000000	-0.872485	2.681157	5.694475	7.543641	-0.000001	0.000000	1.018883	-0.424936	-0.199653	0.000000	0.000000	0.000000
	76.1179	92.9615	17.7443	-5.847575	9.993688	-1.442172	4.936149	1.131449	1.573985	2.353189	0.668229	0.548194	7.879205	2.193998	1.729216	-1.270796	-0.043973	0.154814	-0.370026	-0.041526	1.255065	-7.103649	0.398615	-22.147060	12.553100	-19.945140	-53.452080	0.144540	-42.960610	0.042305	-0.000002	-0.000001	0.000000	0.000000	0.000000	-0.000001	0.000000	0.000000	-0.000001	0.000000	0.000000	-0.000001	0.000000	0.000000	-0.000001	0.000000	0.000000	-0.000001	0.000000	0.000000	-0.000001	0.000000	0.000000	-0.000001	0.000000	0.000000	-0.000001	0.000000	0.000000	-0.000001	0.000000	0.000000	-0.000001	0.000000	0.000000	-0.000001	0.000000	0.000000	-0.000001	0.000000	0.000000	-0.000001	0.000000	0.000000	-0.000001	0.000000	0.000000	-0.000001	-2.210491	-5.807518	0.338338	6.490886	49.169400	68.286010	0.107646	32.467300	-0.016542	0.000000	0.000000	0.000000	0.000000	0.000000	0.000000	0.000000	0.000000	0.000000	0.000000	0.000000	0.000000	0.000000	0.000000	0.000000	0.000000	0.000000	0.000000	0.000000	0.000000	0.000000	0.000000	0.000000	0.000000	0.000000	0.000000	0.000000	0.000000	0.000000	0.000000	0.000000	0.000000	0.000000	0.000000	0.000000	0.000000	0.000000	0.000000	0.000000	0.000000	0.000000	0.000000	0.000000	0.000000	0.000000	0.000000	0.000000	0.000000	-1.607597	-3.530910	1.172052	7.780528	0.000000	0.000000	3.686112	1.648813	0.716778	0.000000	0.000000	0.000000	-1.306728	2.554101	5.784253	8.073704	-0.000001	-0.000001	0.796316	-1.298975	-0.611164	0.000000	0.000000	0.000000
	76.1051	92.8442	17.8237	-5.761002	10.056060	-1.557792	4.949808	1.112726	1.582955	2.340890	0.666124	0.540542	7.820182	2.153063	1.689639	-1.475049	-0.054044	0.189002	-0.499876	-0.046461	1.357647	-7.115871	0.401398	-22.180640	12.332700	-19.043280	-53.716270	0.146199	-43.478320	0.044057	0.000000	0.000001	0.000005	0.000001	0.000002	0.000004	0.000001	0.000002	0.000004	0.000001	0.000002	0.000004	0.000001	0.000002	0.000004	0.000001	0.000002	0.000004	0.000001	0.000002	0.000004	0.000001	0.000002	0.000004	0.000001	0.000002	0.000004	0.000001	0.000002	0.000004	0.000001	0.000002	0.000004	0.000001	0.000002	0.000004	0.000001	0.000002	0.000004	0.000001	0.000002	0.000004	0.000001	0.000002	0.000004	0.000001	0.000002	0.000004	-2.213132	-5.814906	0.341336	5.848552	49.211270	68.504920	0.115863	33.880560	-0.018338	0.000000	0.000000	0.000000	-0.000004	-0.000003	0.000001	0.000005	-0.000002	-0.000004	-0.000001	0.000002	-0.000002	-0.000004	-0.000003	0.000001	0.000005	-0.000002	-0.000004	-0.000001	0.000002	-0.000002	-0.000004	-0.000003	0.000001	0.000005	-0.000002	-0.000004	-0.000001	0.000002	-0.000002	-0.000004	-0.000003	0.000001	0.000005	-0.000002	-0.000004	-0.000001	0.000002	-0.000002	-0.000004	-0.000003	0.000001	0.000005	-0.000002	-0.000004	-0.000001	0.000002	-0.000002	-1.836211	-3.617351	1.292004	7.600348	0.000000	0.000000	4.175669	1.131970	0.487994	0.000000	0.000000	0.000000	-2.251376	2.403923	5.923632	9.626378	0.000000	0.000000	0.348177	-1.990150	-0.945021	0.000000	-0.000001	0.000000
	76.0801	92.6748	17.8763	-5.619985	10.132790	-1.651419	4.962834	1.089429	1.591897	2.307555	0.662703	0.521694	7.747140	2.108876	1.645453	-1.673180	-0.065961	0.229184	-0.704431	-0.054793	1.521642	-7.124359	0.403335	-22.203970	12.161770	-17.878480	-54.075370	0.150329	-44.325290	0.046792	0.000000	0.000000	0.000000	0.000000	0.000000	0.000000	0.000000	0.000000	0.000000	0.000000	0.000000	0.000000	0.000000	0.000000	0.000000	0.000000	0.000000	0.000000	0.000000	0.000000	0.000000	0.000000	0.000000	0.000000	0.000000	0.000000	0.000000	0.000000	0.000000	0.000000	0.000000	0.000000	0.000000	0.000000	0.000000	0.000000	0.000000	0.000000	0.000000	0.000000	0.000000	0.000000	0.000000	0.000000	0.000000	0.000000	0.000000	0.000000	-2.275656	-5.990074	0.412304	5.016881	49.529510	68.706470	0.121918	34.541030	-0.018624	0.000001	-0.000001	0.000001	0.000000	0.000000	0.000000	0.000000	0.000000	0.000000	-0.000001	0.000001	-0.000001	0.000000	0.000000	0.000000	0.000000	0.000000	0.000000	-0.000001	0.000001	-0.000001	0.000000	0.000000	0.000000	0.000000	0.000000	0.000000	-0.000001	0.000001	-0.000001	0.000000	0.000000	0.000000	0.000000	0.000000	0.000000	-0.000001	0.000001	-0.000001	0.000000	0.000000	0.000000	0.000000	0.000000	0.000000	-0.000001	0.000001	-0.000001	-2.526261	-3.734483	1.364111	8.571377	0.000000	0.000000	3.597571	0.618667	0.272085	0.000000	0.000000	0.000000	-3.757838	2.213537	6.048651	12.198070	0.000000	0.000001	-0.289916	-2.307549	-1.111334	0.000000	0.000000	0.000000
	76.0432	92.3734	17.8538	-5.315154	10.223860	-1.728350	4.965226	1.058706	1.597471	2.287777	0.661944	0.511376	7.665024	2.052497	1.596612	-1.863650	-0.079928	0.275986	-0.939007	-0.065100	1.710524	-7.136680	0.406151	-22.237820	12.164600	-16.573110	-54.401250	0.158606	-45.849000	0.051944	0.000002	-0.000002	-0.000001	0.000000	0.000000	0.000000	0.000000	0.000000	0.000000	0.000000	0.000000	0.000000	0.000000	0.000000	0.000000	0.000000	0.000000	0.000000	0.000000	0.000000	0.000000	0.000000	0.000000	0.000000	0.000000	0.000000	0.000000	0.000000	0.000000	0.000000	0.000000	0.000000	0.000000	0.000000	0.000000	0.000000	0.000000	0.000000	0.000000	0.000000	0.000000	0.000000	0.000000	0.000000	0.000000	0.000000	0.000000	0.000000	-2.371725	-6.260461	0.521456	4.008330	50.115830	68.795280	0.126363	34.855110	-0.018263	0.000000	0.000000	-0.000001	0.000000	0.000000	-0.000001	0.000000	0.000000	-0.000001	0.000000	0.000000	-0.000001	0.000000	0.000000	-0.000001	0.000000	0.000000	-0.000001	0.000000	0.000000	-0.000001	0.000000	0.000000	-0.000001	0.000000	0.000000	-0.000001	0.000000	0.000000	-0.000001	0.000000	0.000000	-0.000001	0.000000	0.000000	-0.000001	0.000000	0.000000	-0.000001	0.000000	0.000000	-0.000001	0.000000	0.000000	-0.000001	0.000000	0.000000	-0.000001	-4.051566	-3.897838	1.338767	10.966020	-0.000001	0.000000	2.124929	0.314643	0.143125	0.000000	0.000000	0.000000	-5.936796	1.947479	6.117795	15.678360	0.000001	0.000000	-1.115779	-2.362928	-1.158919	0.000000	0.000000	0.000000
	75.9883	91.8416	17.6183	-4.652301	10.296080	-1.813893	4.953430	1.054275	1.595674	2.266459	0.662211	0.500928	7.576849	1.978660	1.543336	-2.042872	-0.095820	0.328944	-1.115731	-0.073384	1.852957	-7.138709	0.406616	-22.243400	12.433490	-15.840610	-54.336880	0.172246	-48.161910	0.060631	-0.000001	-0.000003	-0.000010	0.000000	0.000000	-0.000001	0.000000	0.000000	-0.000001	0.000000	0.000000	-0.000001	0.000000	0.000000	-0.000001	0.000000	0.000000	-0.000001	0.000000	0.000000	-0.000001	0.000000	0.000000	-0.000001	0.000000	0.000000	-0.000001	0.000000	0.000000	-0.000001	0.000000	0.000000	-0.000001	0.000000	0.000000	-0.000001	0.000000	0.000000	-0.000001	0.000000	0.000000	-0.000001	0.000000	0.000000	-0.000001	0.000000	0.000000	-0.000001	-2.457580	-6.503378	0.619116	2.848405	50.938640	68.602520	0.130540	35.472690	-0.018929	0.000000	0.000000	-0.000001	0.000003	0.000000	-0.000005	0.000000	0.000000	0.000000	0.000003	0.000000	-0.000005	0.000003	0.000000	-0.000005	0.000000	0.000000	0.000000	0.000003	0.000000	-0.000005	0.000003	0.000000	-0.000005	0.000000	0.000000	0.000000	0.000003	0.000000	-0.000005	0.000003	0.000000	-0.000005	0.000000	0.000000	0.000000	0.000003	0.000000	-0.000005	0.000003	0.000000	-0.000005	0.000000	0.000000	0.000000	0.000003	0.000000	-0.000005	-6.813789	-4.143490	1.168974	14.899510	0.000000	0.000000	-0.034260	0.226633	0.108181	0.000000	0.000000	0.000000	-9.043530	1.542138	6.092482	19.989280	0.000004	0.000001	-2.120520	-2.307006	-1.155456	0.000000	0.000000	0.000000
	75.8933	90.9647	16.9735	-3.363057	10.243330	-2.000813	4.939644	1.056690	1.592941	2.206980	0.668371	0.474812	7.478842	1.894659	1.486841	-2.208042	-0.113494	0.387542	-1.239048	-0.079491	1.953855	-7.147478	0.408628	-22.267500	12.909730	-16.720210	-53.294940	0.191292	-51.050450	0.073180	-0.000001	0.000000	0.000005	0.000003	0.000000	0.000004	-0.000001	0.000000	0.000005	0.000003	0.000000	0.000004	0.000003	0.000000	0.000004	-0.000001	0.000000	0.000005	0.000003	0.000000	0.000004	0.000003	0.000000	0.000004	-0.000001	0.000000	0.000005	0.000003	0.000000	0.000004	0.000003	0.000000	0.000004	-0.000001	0.000000	0.000005	0.000003	0.000000	0.000004	0.000003	0.000000	0.000004	-0.000001	0.000000	0.000005	0.000003	0.000000	0.000004	-2.502264	-6.630289	0.669989	1.431414	52.063850	67.965030	0.136114	36.866540	-0.021854	0.000002	-0.000002	0.000001	0.000000	0.000000	-0.000001	0.000000	0.000000	-0.000001	0.000000	0.000000	-0.000001	0.000000	0.000000	-0.000001	0.000000	0.000000	-0.000001	0.000000	0.000000	-0.000001	0.000000	0.000000	-0.000001	0.000000	0.000000	-0.000001	0.000000	0.000000	-0.000001	0.000000	0.000000	-0.000001	0.000000	0.000000	-0.000001	0.000000	0.000000	-0.000001	0.000000	0.000000	-0.000001	0.000000	0.000000	-0.000001	0.000000	0.000000	-0.000001	-11.191200	-4.569082	0.873129	20.262390	0.000000	-0.000001	-2.537141	0.366833	0.186734	0.000000	0.000000	0.000000	-13.371670	0.876087	5.978541	25.019540	0.000001	0.000000	-3.440931	-2.101579	-1.081278	0.000000	0.000001	0.000000
